<svg xmlns="http://www.w3.org/2000/svg" version="1.1" xmlns:xlink="http://www.w3.org/1999/xlink" xmlns:svgjs="http://svgjs.dev/svgjs" width="1000" height="625" viewBox="0 0 1000 625"><g transform="matrix(1,0,0,1,0,0)"><svg viewBox="0 0 512 320" data-background-color="#ffffff" preserveAspectRatio="xMidYMid meet" height="625" width="1000" xmlns="http://www.w3.org/2000/svg" xmlns:xlink="http://www.w3.org/1999/xlink"><g id="tight-bounds" transform="matrix(1,0,0,1,0,0)"><svg viewBox="0 0 512 320" height="320" width="512"><g><svg></svg></g><g><svg viewBox="0 0 512 320" height="320" width="512"><g><path xmlns="http://www.w3.org/2000/svg" d="M96 160c0-88.366 71.634-160 160-160 88.366 0 160 71.634 160 160 0 88.366-71.634 160-160 160-88.366 0-160-71.634-160-160z" fill="#fce44d" fill-rule="nonzero" stroke="none" stroke-width="1" stroke-linecap="butt" stroke-linejoin="miter" stroke-miterlimit="10" stroke-dasharray="" stroke-dashoffset="0" font-family="none" font-weight="none" font-size="none" text-anchor="none" style="mix-blend-mode: normal" data-fill-palette-color="tertiary"></path></g><g transform="matrix(1,0,0,1,76.80000000000001,20)"><svg viewBox="0 0 358.4 280" height="280" width="358.4"><g><svg viewBox="0 0 358.4 280" height="280" width="358.4"><g><svg viewBox="0 0 358.4 280" height="280" width="358.4"><g><svg viewBox="0 0 358.4 280" height="280" width="358.4"><g><svg viewBox="0 0 358.4 280" height="280" width="358.4"><g transform="matrix(1,0,0,1,139.30007052642742,90.50252531694167)"><svg viewBox="0 0 79.79985894714514 98.99494936611666" height="98.99494936611666" width="79.79985894714514"><g><svg xmlns="http://www.w3.org/2000/svg" xmlns:xlink="http://www.w3.org/1999/xlink" version="1.1" x="0" y="0" viewBox="11.883437156677246 5.409485340118408 72.45594024658203 89.884521484375" enable-background="new 0 0 100 100" xml:space="preserve" height="98.99494936611666" width="79.79985894714514" class="icon-o-0" data-fill-palette-color="quaternary" id="o-0"><path fill="#cf2626" d="M28.336 34.614c-1.439 0-2.606 1.167-2.606 2.606 0 1.439 1.167 2.605 2.606 2.605 1.439 0 2.606-1.167 2.606-2.605C30.941 35.781 29.775 34.614 28.336 34.614zM84.163 72.448c-0.205-0.312-0.553-0.502-0.926-0.502h-2.179c1.72-3.893 1.273-10.563 1.204-11.446-0.03-0.39-0.265-0.736-0.62-0.906-0.351-0.168-0.771-0.138-1.096 0.08-0.09 0.065-9.941 6.679-21.144 5.601-8.512-0.807-10.139-5.65-10.452-7.594 10.406-2.877 17.587-12.252 17.587-23.13 0-6.808-2.86-12.95-7.426-17.326 0.471-0.371 1.54-0.836 3.703-0.935 0.609-0.026 1.079-0.543 1.051-1.15-0.026-0.607-0.448-1.115-1.15-1.051-2.993 0.136-4.494 0.909-5.271 1.675-0.118-0.094-0.243-0.179-0.363-0.271 0.718-2.542 2.726-7.465 5.832-7.889 0.603-0.082 1.025-0.637 0.943-1.24-0.082-0.605-0.65-1.031-1.24-0.943-4.289 0.583-6.565 6.063-7.434 8.757-0.512-0.319-1.03-0.629-1.567-0.91 0.62-1.481 1.318-4.289-0.523-7.326-0.314-0.521-0.993-0.683-1.514-0.372-0.521 0.317-0.687 0.995-0.373 1.514 1.314 2.167 0.847 4.176 0.416 5.25-2.812-1.157-5.884-1.805-9.108-1.805-13.249 0-24.025 10.777-24.025 24.023 0 3.352 0.689 6.558 1.938 9.479-2.331 0.66-5.297 1.189-6.35 0.663-0.945-0.469-1.537-0.073-1.751 0.121-0.349 0.319-0.67 0.937-0.222 2.084 0.922 2.368 4.752 6.782 9.836 6.782h0.03l5.982-0.022c2.082 1.578 4.437 2.84 7.016 3.687-3.355 3.331-7.736 10.383-7.736 16.595 0 2.185 0.7 21.353 24.917 21.353 22.111 0 31.996-21.575 32.095-21.793C84.396 73.156 84.365 72.762 84.163 72.448zM21.962 51.473H21.94c-3.409 0-6.085-2.707-7.239-4.403 2.199 0.203 5.143-0.557 6.71-1.029 1.081 1.988 2.426 3.817 4.016 5.419L21.962 51.473zM52.149 93.086c-21.616 0-22.712-15.951-22.712-19.148 0-6.242 5.463-14.215 8.309-16.097 0.103-0.052 0.213-0.133 0.295-0.215 0.284-0.282 0.392-0.698 0.284-1.083-0.11-0.385-0.42-0.68-0.81-0.771-9.905-2.328-16.823-11.052-16.823-21.222 0-12.03 9.788-21.818 21.82-21.818 12.03 0 21.818 9.788 21.818 21.818 0 10.178-6.925 18.905-16.838 21.224-0.491 0.116-0.827 0.553-0.835 1.059-0.002 0.082 0.007 0.161 0.024 0.239 0.082 1.473 1.07 9.31 12.512 10.398 9.295 0.881 17.566-3.06 20.957-4.978 0.078 3.591-0.334 8.324-1.88 9.745-0.334 0.308-0.446 0.788-0.28 1.212 0.166 0.424 0.573 0.702 1.027 0.702h2.409C78.771 78.929 69.442 93.086 52.149 93.086zM68.671 69.289c-0.013 0-0.904 0.039-2.257 0.039-2.543 0-7.252-0.144-10.238-1.122-1.897-0.62-3.198-1.458-4.455-2.269-1.682-1.085-3.273-2.112-5.766-2.192l-0.349-0.004c-3.622 0-4.995 1.895-5.381 2.597-1.692 1.813-2.45 6.193-0.894 10.077 0.98 2.442 3.693 6.541 10.869 6.541 12.781 0 18.554-9.056 19.57-12.23 0.11-0.344 0.043-0.719-0.174-1.006C69.375 69.433 69.045 69.255 68.671 69.289zM50.201 80.751c-5.583 0-7.881-2.806-8.824-5.157-1.294-3.23-0.558-6.783 0.517-7.81 0.101-0.097 0.196-0.243 0.256-0.372 0.026-0.06 0.691-1.466 3.456-1.466l0.278 0.004c1.884 0.06 3.101 0.846 4.642 1.841 1.311 0.844 2.797 1.804 4.965 2.513 3.111 1.016 7.657 1.229 10.923 1.229 0.213 0 0.415 0 0.605-0.002C65.18 74.943 60.019 80.751 50.201 80.751z" data-fill-palette-color="quaternary"></path></svg></g></svg></g><path d="M62.405 86.193V86.193C64.069 86.785 65.495 87.535 66.683 88.443 67.872 89.35 68.848 90.372 69.614 91.507 70.385 92.644 70.958 93.878 71.333 95.209 71.704 96.531 71.904 97.911 71.935 99.347 71.974 100.78 71.854 102.249 71.575 103.753 71.302 105.26 70.899 106.764 70.366 108.263V108.263C70.168 108.82 69.957 109.362 69.734 109.888 69.517 110.417 69.278 110.949 69.017 111.483V111.483L45.227 102.461C45.276 101.003 45.462 99.547 45.787 98.094 46.103 96.645 46.504 95.238 46.99 93.871V93.871C47.596 92.169 48.41 90.694 49.431 89.446 50.452 88.199 51.632 87.228 52.969 86.535 54.298 85.846 55.762 85.458 57.361 85.371 58.958 85.291 60.639 85.565 62.405 86.193ZM61.192 94.017L60.936 93.926C60.301 93.685 59.661 93.532 59.014 93.466 58.366 93.406 57.75 93.462 57.169 93.633 56.592 93.813 56.068 94.114 55.596 94.538 55.131 94.964 54.757 95.533 54.475 96.246V96.246L65.295 100.909C65.441 100.155 65.438 99.424 65.285 98.713 65.127 97.994 64.861 97.329 64.487 96.718 64.104 96.112 63.628 95.575 63.06 95.109 62.498 94.645 61.875 94.281 61.192 94.017ZM84.103 44.817V44.817C84.82 45.416 85.578 46.111 86.379 46.902 87.189 47.692 87.988 48.548 88.776 49.469 89.569 50.395 90.337 51.377 91.079 52.417 91.815 53.452 92.467 54.521 93.033 55.624 93.598 56.718 94.058 57.828 94.412 58.955 94.76 60.078 94.953 61.193 94.991 62.301 95.024 63.413 94.878 64.499 94.553 65.558 94.224 66.613 93.656 67.622 92.851 68.586V68.586C91.912 69.71 90.913 70.534 89.854 71.058 88.795 71.582 87.711 71.884 86.603 71.965 85.493 72.036 84.369 71.919 83.231 71.616 82.097 71.308 80.984 70.881 79.891 70.335 78.797 69.78 77.736 69.143 76.708 68.425 75.686 67.711 74.734 66.986 73.853 66.249V66.249C72.492 65.113 71.192 63.913 69.954 62.651 68.714 61.379 67.528 60.055 66.393 58.679V58.679L72.34 52.095C73.645 53.623 74.986 55.124 76.363 56.598 77.745 58.076 79.211 59.463 80.763 60.759V60.759C80.928 60.897 81.179 61.093 81.516 61.349 81.854 61.605 82.239 61.883 82.671 62.183 83.108 62.477 83.567 62.765 84.05 63.046 84.533 63.327 85.001 63.547 85.454 63.707 85.908 63.876 86.321 63.963 86.693 63.967 87.071 63.977 87.361 63.86 87.563 63.618V63.618C87.796 63.339 87.873 62.975 87.794 62.524 87.711 62.079 87.519 61.586 87.218 61.045 86.912 60.501 86.519 59.923 86.04 59.313 85.565 58.697 85.05 58.083 84.494 57.47 83.934 56.863 83.361 56.266 82.774 55.679 82.189 55.102 81.64 54.57 81.129 54.082 80.609 53.594 80.144 53.171 79.735 52.812 79.326 52.453 79.021 52.189 78.82 52.021V52.021C78.063 51.389 77.297 50.771 76.523 50.168 75.758 49.564 74.981 48.976 74.19 48.403V48.403L79.88 41.592C81.314 42.588 82.722 43.663 84.103 44.817ZM117.277 14.37V14.37L120.393 21.814C120.029 21.91 119.679 22.037 119.343 22.195 119.01 22.343 118.684 22.51 118.365 22.697V22.697C117.559 23.168 116.854 23.725 116.249 24.366 115.64 25.002 115.183 25.705 114.879 26.474 114.571 27.238 114.44 28.046 114.487 28.897 114.539 29.746 114.823 30.611 115.339 31.492V31.492C115.671 32.06 116.049 32.5 116.473 32.813 116.893 33.119 117.348 33.312 117.838 33.391 118.322 33.474 118.826 33.451 119.351 33.324 119.872 33.19 120.402 32.966 120.941 32.651V32.651C121.341 32.417 121.733 32.129 122.117 31.788 122.507 31.443 122.873 31.078 123.215 30.691 123.559 30.295 123.877 29.888 124.168 29.468 124.466 29.045 124.725 28.637 124.946 28.243V28.243L128.794 36.321C128.49 36.787 128.143 37.25 127.752 37.712 127.352 38.172 126.926 38.615 126.476 39.042 126.028 39.475 125.56 39.877 125.069 40.25 124.588 40.624 124.107 40.952 123.626 41.234V41.234C122.24 42.044 120.796 42.542 119.294 42.728 117.796 42.919 116.343 42.823 114.937 42.44 113.528 42.066 112.215 41.417 110.998 40.495 109.78 39.581 108.758 38.42 107.935 37.011V37.011C106.843 35.145 106.084 33.227 105.657 31.26 105.224 29.295 105.162 27.387 105.471 25.533 105.777 23.689 106.489 21.958 107.605 20.341 108.712 18.721 110.262 17.328 112.257 16.162V16.162C113.01 15.721 113.82 15.33 114.685 14.987 115.545 14.648 116.409 14.442 117.277 14.37ZM156.937 0.991L166.465 0 159.773 14.082 169.778 25.881 161.411 29.003 154.257 21.995 155.516 30.48 147.814 32.209 143.136 3.538 151.914 2.42 152.797 10.975ZM247.224 18.086L255.3 22.908 239.89 44.646 230.088 40.179 233.92 26.917 226.351 37.282 216.484 32.95 223.701 7.676 232.54 11.009 227.414 26.006 236.533 12.933 243.194 16.144 238.937 31.774ZM282.149 65.865V65.865C281.288 66.624 280.368 67.256 279.389 67.761 278.414 68.27 277.411 68.645 276.377 68.884 275.348 69.128 274.306 69.241 273.251 69.222 272.191 69.198 271.162 69.035 270.162 68.734 269.154 68.433 268.187 67.991 267.262 67.409 266.338 66.827 265.487 66.095 264.71 65.214V65.214C263.955 64.357 263.346 63.448 262.884 62.486 262.421 61.524 262.089 60.532 261.887 59.511 261.685 58.489 261.621 57.462 261.696 56.43 261.77 55.397 261.979 54.389 262.322 53.407 262.66 52.429 263.124 51.488 263.714 50.583 264.303 49.687 265.021 48.866 265.868 48.12V48.12C266.689 47.397 267.584 46.787 268.553 46.291 269.522 45.786 270.521 45.412 271.55 45.167 272.584 44.928 273.628 44.813 274.684 44.823 275.735 44.837 276.765 44.985 277.775 45.268 278.785 45.55 279.746 45.97 280.658 46.527 281.574 47.09 282.407 47.796 283.158 48.648V48.648C284.37 50.024 285.262 51.467 285.832 52.978 286.403 54.489 286.646 55.994 286.561 57.492 286.476 58.991 286.065 60.454 285.327 61.883 284.594 63.316 283.535 64.644 282.149 65.865ZM276.218 59.866V59.866C276.621 59.511 276.966 59.104 277.252 58.646 277.528 58.188 277.715 57.714 277.813 57.226 277.91 56.737 277.903 56.242 277.792 55.74 277.681 55.238 277.435 54.77 277.053 54.337V54.337C276.658 53.888 276.226 53.561 275.758 53.356 275.286 53.145 274.798 53.038 274.294 53.035 273.795 53.027 273.301 53.122 272.813 53.32 272.319 53.522 271.864 53.807 271.445 54.176V54.176C271.047 54.526 270.698 54.933 270.398 55.394 270.102 55.861 269.893 56.35 269.77 56.861 269.647 57.372 269.636 57.882 269.737 58.393 269.833 58.908 270.077 59.388 270.467 59.831V59.831C270.863 60.28 271.304 60.603 271.791 60.8 272.283 61.002 272.786 61.096 273.301 61.081 273.816 61.066 274.327 60.95 274.836 60.735 275.339 60.524 275.8 60.234 276.218 59.866ZM312.373 94.129L314.998 103.342 299.97 99.189 290.082 111.085 285.558 103.385 291.222 95.126 283.083 97.835 280.046 90.549 307.475 80.978 310.096 89.43 301.823 91.78ZM65.359 194.286V194.286C63.707 194.872 62.144 195.188 60.671 195.233 59.197 195.279 57.81 195.105 56.509 194.711 55.208 194.318 54 193.727 52.887 192.939 51.77 192.16 50.751 191.228 49.832 190.143 48.908 189.067 48.082 187.863 47.353 186.533 46.627 185.209 46 183.803 45.472 182.315V182.315C45.277 181.765 45.1 181.218 44.943 180.675 44.78 180.134 44.632 179.577 44.5 179.004V179.004L68.392 171.082C69.264 172.234 70.029 173.466 70.687 174.779 71.345 176.092 71.915 177.425 72.396 178.78V178.78C72.993 180.464 73.289 182.101 73.283 183.692 73.28 185.29 72.983 186.771 72.391 188.135 71.799 189.5 70.914 190.712 69.736 191.771 68.565 192.828 67.106 193.666 65.359 194.286ZM61.412 187.531L61.658 187.443C62.296 187.231 62.885 186.944 63.426 186.581 63.963 186.226 64.397 185.801 64.727 185.306 65.064 184.809 65.279 184.252 65.374 183.634 65.462 183.018 65.392 182.348 65.163 181.624V181.624L53.954 184.8C54.313 185.471 54.775 186.03 55.34 186.478 55.899 186.928 56.516 187.269 57.189 187.5 57.865 187.738 58.563 187.857 59.283 187.858 60.01 187.857 60.719 187.748 61.412 187.531ZM95.635 227.048V227.048C94.923 227.641 94.114 228.26 93.207 228.903 92.295 229.55 91.32 230.179 90.282 230.791 89.241 231.398 88.15 231.967 87.01 232.498 85.869 233.039 84.715 233.485 83.548 233.837 82.376 234.194 81.212 234.444 80.054 234.587 78.897 234.73 77.775 234.722 76.688 234.562 75.601 234.401 74.575 234.068 73.61 233.561 72.635 233.053 71.752 232.325 70.96 231.376V231.376C70.031 230.262 69.403 229.142 69.075 228.015 68.752 226.894 68.652 225.788 68.775 224.698 68.893 223.602 69.204 222.529 69.709 221.478 70.205 220.426 70.819 219.416 71.55 218.447 72.281 217.479 73.084 216.559 73.959 215.69 74.839 214.815 75.715 214.015 76.587 213.288V213.288C77.933 212.165 79.33 211.113 80.777 210.133 82.234 209.154 83.734 208.231 85.276 207.364V207.364L90.634 214.322C88.913 215.32 87.214 216.361 85.538 217.444 83.857 218.523 82.249 219.703 80.712 220.985V220.985C80.547 221.123 80.311 221.333 80.004 221.615 79.697 221.897 79.358 222.224 78.986 222.596 78.623 222.968 78.263 223.365 77.905 223.785 77.548 224.206 77.248 224.622 77.005 225.034 76.763 225.446 76.606 225.835 76.535 226.201 76.46 226.561 76.523 226.862 76.725 227.105V227.105C76.958 227.383 77.298 227.519 77.747 227.512 78.195 227.514 78.712 227.416 79.297 227.216 79.873 227.015 80.502 226.736 81.183 226.378 81.868 226.025 82.557 225.629 83.25 225.191 83.947 224.758 84.629 224.307 85.296 223.838 85.968 223.375 86.584 222.935 87.147 222.518 87.713 222.107 88.207 221.734 88.628 221.4 89.045 221.061 89.354 220.808 89.555 220.64V220.64C90.303 220.016 91.042 219.382 91.773 218.738 92.494 218.092 93.204 217.439 93.903 216.777V216.777L99.523 223.515C98.293 224.735 96.996 225.912 95.635 227.048ZM130.429 244.628V244.628L125.522 250.919C125.266 250.653 124.989 250.413 124.693 250.201 124.401 249.983 124.098 249.782 123.785 249.599V249.599C122.985 249.131 122.162 248.789 121.315 248.574 120.465 248.364 119.636 248.311 118.829 248.415 118.024 248.527 117.268 248.808 116.561 249.258 115.85 249.714 115.239 250.38 114.727 251.255V251.255C114.398 251.817 114.204 252.354 114.146 252.865 114.08 253.378 114.129 253.866 114.294 254.328 114.462 254.785 114.731 255.211 115.099 255.605 115.465 255.99 115.912 256.337 116.439 256.646V256.646C116.839 256.88 117.279 257.079 117.759 257.243 118.244 257.411 118.737 257.547 119.235 257.652 119.74 257.761 120.247 257.839 120.755 257.888 121.264 257.936 121.742 257.964 122.19 257.969V257.969L117.086 265.195C116.537 265.162 115.97 265.087 115.385 264.97 114.794 264.85 114.204 264.7 113.617 264.52 113.021 264.342 112.446 264.134 111.893 263.896 111.34 263.658 110.826 263.399 110.35 263.121V263.121C108.976 262.317 107.848 261.314 106.964 260.112 106.07 258.912 105.446 257.613 105.09 256.214 104.73 254.821 104.654 253.375 104.861 251.878 105.059 250.383 105.566 248.937 106.384 247.54V247.54C107.463 245.697 108.744 244.112 110.228 242.786 111.712 241.46 113.327 240.483 115.072 239.855 116.817 239.226 118.658 239 120.594 239.176 122.524 239.348 124.477 240.013 126.454 241.169V241.169C127.196 241.604 127.924 242.108 128.639 242.682 129.35 243.261 129.947 243.91 130.429 244.628ZM162.117 252.467L171.274 254.916 160.119 265.56 165.197 280 156.358 279.935 152.223 270.925 150.386 279.211 142.663 278.093 148.475 249.948 156.976 252.01 154.772 260.229ZM235.42 239.091L244.114 235.805 251.483 261.113 241.988 265.961 234.066 254.83 237.445 267.072 228.02 272.043 212.878 250.908 220.899 246.112 229.361 259.309 224.844 244.204 231.429 241.021 240.927 253.93ZM282.205 215.984V215.984C283.057 216.734 283.793 217.555 284.411 218.448 285.035 219.346 285.531 220.287 285.899 221.273 286.266 222.248 286.504 223.259 286.614 224.303 286.723 225.339 286.694 226.368 286.526 227.393 286.359 228.417 286.047 229.422 285.592 230.408 285.136 231.384 284.524 232.308 283.757 233.181V233.181C283.011 234.028 282.193 234.74 281.302 235.315 280.421 235.891 279.488 236.341 278.505 236.665 277.531 236.989 276.532 237.18 275.508 237.236 274.483 237.292 273.469 237.214 272.466 237.002 271.458 236.796 270.478 236.456 269.524 235.985 268.571 235.522 267.676 234.923 266.839 234.186V234.186C266.022 233.468 265.309 232.667 264.701 231.782 264.087 230.894 263.597 229.961 263.229 228.986 262.862 228 262.616 226.988 262.492 225.949 262.374 224.915 262.391 223.883 262.544 222.855 262.692 221.832 262.986 220.838 263.423 219.872 263.856 218.902 264.443 217.996 265.184 217.154V217.154C266.381 215.792 267.687 214.735 269.099 213.983 270.508 213.236 271.951 212.811 273.429 212.706 274.916 212.602 276.406 212.82 277.897 213.362 279.397 213.904 280.833 214.778 282.205 215.984ZM277.065 222.56V222.56C276.662 222.205 276.22 221.919 275.74 221.702 275.255 221.481 274.766 221.356 274.274 221.325 273.777 221.29 273.291 221.36 272.817 221.533 272.337 221.702 271.909 222 271.532 222.429V222.429C271.142 222.873 270.874 223.34 270.73 223.829 270.585 224.319 270.543 224.81 270.603 225.301 270.663 225.792 270.819 226.265 271.072 226.72 271.33 227.179 271.665 227.591 272.079 227.955V227.955C272.472 228.3 272.914 228.591 273.405 228.826 273.896 229.061 274.4 229.205 274.918 229.257 275.44 229.314 275.946 229.263 276.435 229.103 276.925 228.943 277.363 228.644 277.748 228.205V228.205C278.139 227.761 278.401 227.285 278.535 226.777 278.67 226.278 278.697 225.774 278.617 225.266 278.537 224.766 278.361 224.28 278.088 223.808 277.82 223.339 277.479 222.923 277.065 222.56ZM285.41 177.531L289.398 168.932 297.964 181.752 313.062 179.233 311.478 187.929 301.89 190.452 309.737 193.688 307.307 201.103 280.582 190.536 284.075 182.516 291.792 186.101ZM41.602 140.893C41.602 135.005 46.374 130.233 52.262 130.233 58.149 130.233 62.922 135.005 62.922 140.893 62.922 146.78 58.149 151.553 52.262 151.553 46.374 151.553 41.602 146.78 41.602 140.893ZM295.478 140.893C295.478 135.005 300.251 130.233 306.138 130.233 312.026 130.233 316.798 135.005 316.798 140.893 316.798 146.78 312.026 151.553 306.138 151.553 300.251 151.553 295.478 146.78 295.478 140.893Z" fill="#cf2626" data-fill-palette-color="quaternary"></path></svg></g></svg></g></svg></g></svg></g></svg></g></svg></g><defs></defs></svg><rect width="512" height="320" fill="none" stroke="none" visibility="hidden"></rect></g></svg></g></svg>